<?xml version="1.0" encoding="utf-8"?>
<svg xmlns="http://www.w3.org/2000/svg" xmlns:xlink="http://www.w3.org/1999/xlink" style="margin: auto; background: none; display: block; shape-rendering: auto;" width="190px" height="190px" viewBox="0 0 100 100" preserveAspectRatio="xMidYMid">
<g transform="rotate(0 50 50)">
  <rect x="27" y="27" rx="23" ry="6" width="46" height="12" fill="#2acfcf">
    <animate attributeName="opacity" values="1;0" keyTimes="0;1" dur="1.2987012987012987s" begin="-1.1544011544011545s" repeatCount="indefinite"></animate>
  </rect>
</g><g transform="rotate(40 50 50)">
  <rect x="27" y="27" rx="23" ry="6" width="46" height="12" fill="#2acfcf">
    <animate attributeName="opacity" values="1;0" keyTimes="0;1" dur="1.2987012987012987s" begin="-1.0101010101010102s" repeatCount="indefinite"></animate>
  </rect>
</g><g transform="rotate(80 50 50)">
  <rect x="27" y="27" rx="23" ry="6" width="46" height="12" fill="#2acfcf">
    <animate attributeName="opacity" values="1;0" keyTimes="0;1" dur="1.2987012987012987s" begin="-0.8658008658008658s" repeatCount="indefinite"></animate>
  </rect>
</g><g transform="rotate(120 50 50)">
  <rect x="27" y="27" rx="23" ry="6" width="46" height="12" fill="#2acfcf">
    <animate attributeName="opacity" values="1;0" keyTimes="0;1" dur="1.2987012987012987s" begin="-0.7215007215007215s" repeatCount="indefinite"></animate>
  </rect>
</g><g transform="rotate(160 50 50)">
  <rect x="27" y="27" rx="23" ry="6" width="46" height="12" fill="#2acfcf">
    <animate attributeName="opacity" values="1;0" keyTimes="0;1" dur="1.2987012987012987s" begin="-0.5772005772005773s" repeatCount="indefinite"></animate>
  </rect>
</g><g transform="rotate(200 50 50)">
  <rect x="27" y="27" rx="23" ry="6" width="46" height="12" fill="#2acfcf">
    <animate attributeName="opacity" values="1;0" keyTimes="0;1" dur="1.2987012987012987s" begin="-0.4329004329004329s" repeatCount="indefinite"></animate>
  </rect>
</g><g transform="rotate(240 50 50)">
  <rect x="27" y="27" rx="23" ry="6" width="46" height="12" fill="#2acfcf">
    <animate attributeName="opacity" values="1;0" keyTimes="0;1" dur="1.2987012987012987s" begin="-0.28860028860028863s" repeatCount="indefinite"></animate>
  </rect>
</g><g transform="rotate(280 50 50)">
  <rect x="27" y="27" rx="23" ry="6" width="46" height="12" fill="#2acfcf">
    <animate attributeName="opacity" values="1;0" keyTimes="0;1" dur="1.2987012987012987s" begin="-0.14430014430014432s" repeatCount="indefinite"></animate>
  </rect>
</g><g transform="rotate(320 50 50)">
  <rect x="27" y="27" rx="23" ry="6" width="46" height="12" fill="#2acfcf">
    <animate attributeName="opacity" values="1;0" keyTimes="0;1" dur="1.2987012987012987s" begin="0s" repeatCount="indefinite"></animate>
  </rect>
</g>
<!-- [ldio] generated by https://loading.io/ --></svg>